<?xml version="1.0" standalone="no"?>
<!DOCTYPE svg PUBLIC "-//W3C//DTD SVG 20010904//EN"
 "http://www.w3.org/TR/2001/REC-SVG-20010904/DTD/svg10.dtd">
<svg version="1.0" xmlns="http://www.w3.org/2000/svg"
 width="35.000000pt" height="53.000000pt" viewBox="0 0 35.000000 53.000000"
 preserveAspectRatio="xMidYMid meet">
<metadata>
Created by potrace 1.15, written by Peter Selinger 2001-2017
</metadata>
<g transform="translate(0.000000,53.000000) scale(0.100000,-0.100000)"
fill="#000000" stroke="none">
<path d="M138 395 c-72 -69 -118 -122 -118 -134 0 -11 19 -33 48 -54 26 -20
81 -70 122 -111 41 -42 82 -76 91 -76 20 0 49 31 49 53 0 8 -40 53 -90 98 -50
45 -90 88 -90 94 0 6 38 48 85 95 47 47 85 92 85 101 0 19 -31 49 -51 49 -8
-1 -67 -52 -131 -115z"/>
</g>
</svg>
